# xmcd CD database file
#
# Track frame offsets:
#	150
#	14780
#	28194
#	39822
#	53401
#	62426
#	76161
#	87408
#	97980
#	109772
#	122553
#	134980
#	145803
#	158756
#	172042
#	184101
#	199099
#
# Disc length: 2924 seconds
#
# Revision: 0
# Processed by: cddbd v1.5.2PL0 Copyright (c) Steve Scherf et al.
# Submitted via: CDex 1.51
#
DISCID=e10b6a11
DTITLE=Various Artist - Yéyé French Pop 60's [CD2)
DYEAR=2009
DGENRE=60's
TTITLE0=Johnny Hallyday - Noir c'est noir
TTITLE1=France Gall - Teenie Weenie Boppie
TTITLE2=Serge Gainsbourg - Marilu
TTITLE3=Chantal Kelly - Notre prof' d'anglais
TTITLE4=Catherine Desmarets - Les petites croix
TTITLE5=Eric Charden - Le monde est gris le monde est bleu
TTITLE6=Dan et Vany - Personne dans cette ville
TTITLE7=Brigitte Bardot - Contact
TTITLE8=Delphine - La fermeture éclaire
TTITLE9=Marie Laforêt - Marie douceur, Marie colère
TTITLE10=Elsa [Darde] - Écoutez
TTITLE11=Nino Ferrer - Les hommes à tout faire
TTITLE12=Annie Markan - Mon obsession me poursuit
TTITLE13=Claude François - Reste
TTITLE14=Ronnie Bird - S.O.S mesdemoiselles
TTITLE15=Alan Stivell - Flower power
TTITLE16=Brigitte Bardot et Serge Gainsbourg - Je t'aime moi non plus
EXTD=YEAR: 2009
EXTT0=
EXTT1=
EXTT2=
EXTT3=
EXTT4=
EXTT5=
EXTT6=
EXTT7=
EXTT8=
EXTT9=
EXTT10=
EXTT11=
EXTT12=
EXTT13=
EXTT14=
EXTT15=
EXTT16=
PLAYORDER=
